<?xml version="1.0" standalone="no"?><!DOCTYPE svg PUBLIC "-//W3C//DTD SVG 1.1//EN" "http://www.w3.org/Graphics/SVG/1.1/DTD/svg11.dtd"><svg class="icon" width="200px" height="200.00px" viewBox="0 0 1024 1024" version="1.1" xmlns="http://www.w3.org/2000/svg"><path fill="#333333" d="M767.54821 127.981836 257.905908 127.981836c-36.452213 0-66.00325 29.551036-66.00325 66.00325l0 637.563764c0 36.452213 29.551036 66.00325 66.00325 66.00325l509.642303 0c36.452213 0 66.00325-29.551036 66.00325-66.00325L833.55146 193.985086C833.55146 157.531849 804.001447 127.981836 767.54821 127.981836zM767.54821 798.291398c0 18.367323-14.890128 33.257451-33.257451 33.257451L289.12084 831.54885c-18.367323 0-33.257451-14.890128-33.257451-33.257451L255.863389 225.200018c0-18.367323 14.890128-33.257451 33.257451-33.257451l445.169919 0c18.367323 0 33.257451 14.890128 33.257451 33.257451L767.54821 798.291398zM575.667042 351.84337c0 17.662265-14.3181 31.980365-31.980365 31.980365L351.804485 383.823736c-17.662265 0-31.980365-14.3181-31.980365-31.980365l0 0c0-17.662265 14.3181-31.980365 31.980365-31.980365L543.686676 319.863005C561.348941 319.863005 575.667042 334.181105 575.667042 351.84337L575.667042 351.84337zM703.58748 479.764831c0 17.662265-14.3181 31.980365-31.980365 31.980365l-319.803653 0c-17.662265 0-31.980365-14.3181-31.980365-31.980365l0 0c0-17.662265 14.3181-31.980365 31.980365-31.980365l319.803653 0C689.269379 447.784466 703.58748 462.102566 703.58748 479.764831L703.58748 479.764831zM703.58748 607.686293c0 17.662265-14.3181 31.980365-31.980365 31.980365l-319.803653 0c-17.662265 0-31.980365-14.3181-31.980365-31.980365l0 0c0-17.662265 14.3181-31.980365 31.980365-31.980365l319.803653 0C689.269379 575.705927 703.58748 590.024028 703.58748 607.686293L703.58748 607.686293z" /></svg>