<?xml version="1.0" standalone="no"?><!DOCTYPE svg PUBLIC "-//W3C//DTD SVG 1.1//EN" "http://www.w3.org/Graphics/SVG/1.1/DTD/svg11.dtd"><svg class="icon" width="200px" height="200.00px" viewBox="0 0 1024 1024" version="1.1" xmlns="http://www.w3.org/2000/svg"><path d="M611.626667 725.333333a64 64 0 1 1 64-64 64 64 0 0 1-64 64z m0-85.333333a21.333333 21.333333 0 1 0 21.333333 21.333333 21.333333 21.333333 0 0 0-21.333333-21.333333z" fill="#FF5964" /><path d="M739.626667 213.333333h-277.333334a128 128 0 0 0-128 128v268.373334h-49.92a21.333333 21.333333 0 0 0-21.333333 21.333333V789.333333a21.333333 21.333333 0 0 0 21.333333 21.333334h455.253334a21.333333 21.333333 0 0 0 21.333333-21.333334V234.666667a21.333333 21.333333 0 0 0-21.333333-21.333334z m-277.333334 42.666667h40.533334A128 128 0 0 0 469.333333 341.333333v268.373334h-92.373333V341.333333a85.333333 85.333333 0 0 1 85.333333-85.333333z m256 512H305.706667v-115.626667h93.226666v42.666667a21.333333 21.333333 0 0 0 42.666667 0v-42.666667H490.666667a21.333333 21.333333 0 0 0 21.333333-21.333333V341.333333a85.333333 85.333333 0 0 1 85.333333-85.333333h120.32z" fill="#4A83FF" /></svg>